<svg width="164" height="129" viewBox="0 0 164 129" fill="none" xmlns="http://www.w3.org/2000/svg">
<path opacity="0.5" d="M162.618 118.023C161.935 108.311 160.319 99.2203 157.81 90.9831C156.291 85.6349 154.412 79.8914 152.256 73.9399C149.977 67.5364 147.33 61.5425 144.334 56.0013C142.711 53.0309 140.914 50.2989 138.955 47.8228C136.952 45.2035 134.722 42.9541 132.294 41.1018C129.831 39.1514 127.112 37.746 124.194 36.915C121.269 36.0054 118.132 35.7679 114.87 36.2092L114.326 36.3045C114.339 36.565 114.387 36.8214 114.412 37.0914C115.315 47.318 113.728 58.8733 109.892 70.0189C107.91 75.6599 105.271 81.0033 102.135 85.7237C98.8515 90.6707 95.0107 94.6491 90.9791 97.2791C88.8612 98.7527 86.706 99.7671 84.5946 100.284C82.2256 100.89 79.9756 100.686 78.0156 99.6883C76.1466 98.6358 74.5927 96.8985 73.4555 94.5899C72.3183 92.2813 71.6235 89.4533 71.4164 86.291C71.0433 80.5608 72.1562 74.114 74.5617 68.0717C76.7461 62.5293 79.538 57.3417 82.7779 52.8052C85.9457 48.3142 89.4192 44.3799 93.0759 41.1411C97.6425 37.1121 102.396 34.0992 107.133 32.2317C106.785 30.9731 106.371 29.781 105.893 28.6633C103.11 22.0205 99.0974 16.9421 94.1463 13.7955C89.5546 10.8053 84.4278 9.08067 78.94 8.6803C74.1576 8.29115 69.158 8.83736 64.0522 10.3068C59.6992 11.7026 55.3093 13.6692 50.9359 16.1827C44.0894 20.0178 37.3041 24.8764 30.7015 30.6715C26.2627 34.5137 21.9216 38.779 17.7156 43.4308C14.3499 47.1911 11.9646 50.0525 10.1359 52.326C8.53516 54.2676 7.50215 55.5981 6.68437 56.5873L8.05111 56.1352C11.9475 54.8463 15.4646 53.7756 18.4222 52.9767C24.3264 51.402 28.0593 50.7758 27.998 51.7979C27.9367 52.8201 24.3361 54.9592 18.4288 57.7567C15.4641 59.1786 11.9575 60.7284 8.05279 62.3567L6.57212 62.9747C5.93457 63.2504 5.30023 63.4476 4.67611 63.5641C4.27685 63.6289 3.88632 63.6409 3.5089 63.6002C3.02847 63.5499 2.57843 63.3923 2.17173 63.132C1.33414 62.5957 0.732294 61.5943 0.453776 60.2735C0.181728 58.5212 0.164863 56.5901 0.404067 54.5815L0.698849 49.9959C2.65775 24.4472 5.29481 3.45939 6.63291 3.17437C7.97101 2.88936 7.4889 23.3562 5.54262 48.9144L5.26357 52.2866C6.00081 51.0067 6.78059 49.7757 7.59781 48.6014C9.99997 45.0464 12.5279 41.6904 15.1599 38.5621C19.4696 33.361 23.9742 28.6296 28.6167 24.4279C35.5473 18.0654 42.7057 12.7498 49.9441 8.59079C54.7063 5.82773 59.4884 3.68034 64.2282 2.17655C69.8747 0.505223 75.4043 -0.120295 80.6879 0.314563C86.8049 0.757161 92.5141 2.69518 97.6165 6.06104C103.328 9.73592 107.94 15.6615 111.111 23.4018C112.033 25.6229 112.76 28.0625 113.282 30.6834C114.018 30.5441 114.754 30.4047 115.469 30.3442C119.112 29.9299 122.61 30.2689 125.867 31.3522C129.032 32.3813 131.975 34.028 134.634 36.2589C137.194 38.3433 139.534 40.8542 141.625 43.7607C143.62 46.4251 145.443 49.3548 147.08 52.5307C150.045 58.339 152.625 64.6307 154.8 71.3548C156.863 77.5717 158.6 83.4916 160.01 89.1143C162.32 97.7459 163.592 107.306 163.786 117.485C163.81 120.198 163.685 122.982 163.412 125.812C163.187 127.749 163.061 128.691 162.931 128.782C162.802 128.873 162.976 124.826 162.593 118.004L162.618 118.023ZM108.549 40.2987C108.488 39.5307 108.38 38.79 108.272 38.0493C103.692 39.7847 99.0879 42.7237 94.691 46.7184C91.4824 49.6454 88.4421 53.172 85.6753 57.1761C82.9429 61.0782 80.5999 65.5247 78.7807 70.2602C77.0378 74.754 76.2554 79.5225 76.5684 83.7441C76.7039 85.8287 77.1603 87.6936 77.9078 89.2174C78.6554 90.7412 79.6772 91.8897 80.9069 92.588C83.5667 93.5628 86.7306 92.8211 89.7826 90.5075C92.9746 88.3674 96.0051 85.1663 98.5851 81.2096C101.131 77.2619 103.261 72.8216 104.848 68.1545C106.458 63.4735 107.601 58.6737 108.232 53.9464C108.885 49.2016 109.001 44.5937 108.574 40.3176" fill="#0B1C33"/>
</svg>
